<svg xmlns="http://www.w3.org/2000/svg" viewBox="-5550 -5649.97 106.693 52.94"><defs><style>.a{fill:#fff;}.b{fill:#263d90;}.c{fill:#f5eb29;}.d{fill:#eb2329;}.e{fill:#828486;}.f{fill:#8dc641;}.g{fill:#ed1b7d;}.h{fill:#0d713d;}</style></defs><g transform="translate(-5642 -5678)"><g transform="translate(132.929 32.518)"><g transform="translate(4.695)"><path d="M156.449,15.554c.03.03.03.089.059.118q1.949,5.936,3.455,10.808c.354-1.093.856-2.687,1.536-4.784.8-2.51,1.388-4.4,1.8-5.611.059-.236.325-.354.738-.354a.782.782,0,0,1,.413.089,1.569,1.569,0,0,1,.384-.384q.532-.354.709,0a.427.427,0,0,1,.059.207v11.4a1,1,0,0,1-.532.856c-.354.236-.591.236-.709.03a.556.556,0,0,1-.059-.236V17.149c-.354,1.093-.827,2.6-1.447,4.489-.8,2.54-1.388,4.4-1.772,5.611-.059.236-.325.325-.738.325a.782.782,0,0,1-.5-.148.3.3,0,0,1-.118.148q-.354.487-.532.177a.226.226,0,0,1-.059-.148c-1.034-3.4-2.126-6.91-3.337-10.572,0,6.615.03,9.952.03,9.981a.973.973,0,0,1-.561.856c-.325.236-.561.236-.709.03a.556.556,0,0,1-.059-.236V16.2a.989.989,0,0,1,.532-.827q.532-.354.709,0a.438.438,0,0,1,.03.207" transform="translate(-154.5 -15.2)"/><path d="M198.5,30.89h2.333c.325,0,.709-.03,1.152-.03a3.608,3.608,0,0,0,.945-.089c.177-.03.3-.089.3-.148a4.415,4.415,0,0,0-.207-1.949,3.77,3.77,0,0,0-.945-1.506,2.1,2.1,0,0,0-1.565-.561,2.364,2.364,0,0,0-1.536.679,5.121,5.121,0,0,0-1.063,2.776,7.8,7.8,0,0,0,.059,3.012,5.934,5.934,0,0,0,.591,1.536,2.505,2.505,0,0,0,.945.974,1.9,1.9,0,0,0,1.329.236,1.931,1.931,0,0,0,1.211-.679,2.654,2.654,0,0,1,1.447-.915c.3-.059.443.03.413.207a1.451,1.451,0,0,1-.236.5,3.725,3.725,0,0,1-5.286.65,5.471,5.471,0,0,1-1.477-2.54,8.011,8.011,0,0,1-.236-3.573,4.7,4.7,0,0,1,.856-2.126,3.267,3.267,0,0,1,1.536-1.211,3.725,3.725,0,0,1,1.8-.148,3.556,3.556,0,0,1,1.683.709,3.65,3.65,0,0,1,.856,1,4.561,4.561,0,0,1,.561,1.3,3.377,3.377,0,0,1,.089,1.329,1.6,1.6,0,0,1-.532,1.034,1.244,1.244,0,0,1-.768.236c-.354,0-.8-.03-1.388-.089s-1.034-.089-1.358-.089a3.891,3.891,0,0,1-1.919-.325c-.118-.089-.059-.148.118-.177A1.108,1.108,0,0,1,198.5,30.89Z" transform="translate(-184.148 -22.769)"/><path d="M234.119,19.664c-.561.591-1.358,1.447-2.392,2.54-.118.118-.236.266-.354.384a.1.1,0,0,1,.03.059c1.034,1.8,2.008,3.514,2.983,5.138a.834.834,0,0,1-.118.65c-.148.325-.3.384-.413.177-.8-1.3-1.8-3.012-3.042-5.138a.37.37,0,0,1-.03-.266c-.561.591-.974,1.034-1.3,1.388a.368.368,0,0,1-.354.089v2.54a1.041,1.041,0,0,1-.532.886c-.354.236-.591.236-.709.03a.556.556,0,0,1-.059-.236c0-1.595,0-5.4-.03-11.4a.989.989,0,0,1,.532-.827q.532-.354.709,0a.427.427,0,0,1,.059.207V23.5c2.451-2.6,3.809-4.075,4.134-4.4.148-.148.354-.148.65.059C234.238,19.28,234.3,19.487,234.119,19.664Z" transform="translate(-206.154 -15.411)"/><path d="M260.16,27.122c-1.063-.561-1.86-.62-2.451-.207a4.312,4.312,0,0,0-1.536,2.421,7.386,7.386,0,0,0-.266,3.012A4.737,4.737,0,0,0,257,35.036a2.664,2.664,0,0,0,1.093.738,2.02,2.02,0,0,0,1.181.03,2.824,2.824,0,0,0,1.093-.65,2.864,2.864,0,0,0,.738-1.122,9.1,9.1,0,0,0,.443-2.776,7.13,7.13,0,0,0-.3-2.6,2.621,2.621,0,0,1-.148-1.358c.059-.207.177-.207.325.03a6.164,6.164,0,0,1,.827,1.713,10.845,10.845,0,0,1,.413,2.421,7.961,7.961,0,0,1-.354,2.835,2.242,2.242,0,0,1-.856,1.211,4.124,4.124,0,0,1-1.388.709,3.83,3.83,0,0,1-2.569-.089,4.636,4.636,0,0,1-1.329-.856,4.27,4.27,0,0,1-1-1.3,5.7,5.7,0,0,1-.591-1.772,6.166,6.166,0,0,1-.03-1.949,6.836,6.836,0,0,1,.532-1.919,5,5,0,0,1,1-1.477,3.331,3.331,0,0,1,1.417-.768,3.5,3.5,0,0,1,1.565,0,2,2,0,0,1,1.329.886c.148.207.148.325.03.325C260.455,27.329,260.337,27.27,260.16,27.122Z" transform="translate(-224.96 -22.811)"/><path d="M289.529,29.387c0,2.067.03,4.1.03,6.142,0,.236-.177.413-.532.62-.384.207-.62.207-.738,0a.221.221,0,0,1-.03-.148c0-2.894-.03-5.581-.059-8.062,0-.236.177-.443.5-.62.384-.236.65-.236.738,0a.221.221,0,0,1,.03.148v.679a5.005,5.005,0,0,1,.65-.709,2.957,2.957,0,0,1,1.358-.679c.354-.03.709-.059,1.093-.059a3.344,3.344,0,0,1,1.063.177,1.131,1.131,0,0,1,.65.561,12.128,12.128,0,0,1,.62,2.215,15.545,15.545,0,0,1,.236,2.126v1.89c0,.62-.03,1.122-.03,1.477a2.915,2.915,0,0,0,.059.915c.03.059.148.207.354.5.118.118.118.177.03.177a.321.321,0,0,1-.148-.03,1.951,1.951,0,0,1-.591-.413,2.043,2.043,0,0,1-.413-.709,4.676,4.676,0,0,1-.266-.915,10.236,10.236,0,0,1-.148-1.24c-.03-.5-.059-.974-.059-1.417s-.03-1-.03-1.683c0-.3,0-.591.03-.915a6.793,6.793,0,0,0,.03-.679,1.815,1.815,0,0,0-.03-.413,1,1,0,0,0-.118-.354,1.662,1.662,0,0,0-.856-.591,2.18,2.18,0,0,0-1.152-.03,1.768,1.768,0,0,0-.915.561,2.011,2.011,0,0,0-.5.915c-.059.236-.236.413-.591.561A.8.8,0,0,0,289.529,29.387Z" transform="translate(-248.718 -23.304)"/><path d="M325.113,27.243c0,.118.03.768.089,1.919.03.8.059,1.447.059,1.919.03.325.03.65.03.974a1.212,1.212,0,0,1-.03.325c0,.384,0,.856-.03,1.417,0,.915-.059,1.772-.118,2.54a5.178,5.178,0,0,1-.738,2.362,3.258,3.258,0,0,1-1.654,1.447,3.431,3.431,0,0,1-1.89.059,4.1,4.1,0,0,1-1.713-.945.791.791,0,0,1-.148-1.034c.148-.266.266-.384.384-.354.059,0,.118.059.118.177a2.221,2.221,0,0,0,1.034,1.358,1.777,1.777,0,0,0,1.654.236c.886-.354,1.417-1.358,1.595-3.071.03-.236.03-.5.059-.768a3.6,3.6,0,0,1-3.366.5,4.07,4.07,0,0,1-1.27-.827,4.789,4.789,0,0,1-1-1.3,6.225,6.225,0,0,1-.65-3.573,6.751,6.751,0,0,1,.443-1.919,4.617,4.617,0,0,1,.886-1.506,3.032,3.032,0,0,1,1.417-.886,2.826,2.826,0,0,1,1.565-.03,1.943,1.943,0,0,1,1.27.886c.118.236.118.325,0,.325-.089,0-.207-.089-.354-.236-1.034-.561-1.831-.591-2.421-.089a5,5,0,0,0-1.329,2.6,7.267,7.267,0,0,0-.118,2.983,4.814,4.814,0,0,0,1.152,2.6,1.918,1.918,0,0,0,1.063.591,1.708,1.708,0,0,0,1.152-.148,2.767,2.767,0,0,0,.915-.768,3.556,3.556,0,0,0,.591-1.152c.089-.3.148-.62.207-.915,0-.8,0-1.477-.03-1.979,0-.5-.03-1.181-.059-2.008a1.889,1.889,0,0,1-.059-.207,2.4,2.4,0,0,1-.118-1.329c.059-.236.177-.236.325-.03a3.368,3.368,0,0,1,.325-.325c.325-.236.561-.236.679-.03A.268.268,0,0,1,325.113,27.243Z" transform="translate(-269.36 -22.931)"/></g><g transform="translate(0 15.769)"><path d="M140.519,68.954c.03.03.03.089.059.118q1.949,5.936,3.455,10.808c.354-1.093.856-2.687,1.536-4.784.8-2.51,1.388-4.4,1.8-5.611.059-.236.325-.354.738-.354a.782.782,0,0,1,.413.089,1.569,1.569,0,0,1,.384-.384q.532-.354.709,0a.427.427,0,0,1,.059.207v11.4a1,1,0,0,1-.532.856c-.354.236-.591.236-.679.03a.556.556,0,0,1-.059-.236V70.549c-.354,1.093-.827,2.6-1.447,4.489-.8,2.54-1.388,4.4-1.772,5.611-.059.236-.325.325-.738.325a.782.782,0,0,1-.5-.148.3.3,0,0,1-.118.148q-.354.487-.532.177a.226.226,0,0,1-.059-.148c-1.034-3.4-2.126-6.91-3.337-10.572,0,6.615.03,9.952.03,9.981a.973.973,0,0,1-.561.856c-.325.236-.561.236-.709.03a.556.556,0,0,1-.059-.236V69.6a.989.989,0,0,1,.532-.827q.532-.354.709,0a.438.438,0,0,1,.03.207" transform="translate(-138.6 -68.6)"/><path d="M185.96,80.522c-1.063-.561-1.86-.62-2.451-.207a4.312,4.312,0,0,0-1.536,2.421,7.387,7.387,0,0,0-.266,3.012,4.737,4.737,0,0,0,1.093,2.687,2.664,2.664,0,0,0,1.093.738,2.02,2.02,0,0,0,1.181.03,2.824,2.824,0,0,0,1.093-.65,2.864,2.864,0,0,0,.738-1.122,9.1,9.1,0,0,0,.443-2.776,7.13,7.13,0,0,0-.3-2.6,2.621,2.621,0,0,1-.148-1.358c.059-.207.177-.207.325.03a6.164,6.164,0,0,1,.827,1.713,10.845,10.845,0,0,1,.413,2.421,7.961,7.961,0,0,1-.354,2.835,2.243,2.243,0,0,1-.856,1.211,4.124,4.124,0,0,1-1.388.709,3.83,3.83,0,0,1-2.569-.089,4.636,4.636,0,0,1-1.329-.856,4.271,4.271,0,0,1-1-1.3,5.7,5.7,0,0,1-.591-1.772,6.166,6.166,0,0,1-.03-1.949,6.837,6.837,0,0,1,.532-1.919,5,5,0,0,1,1-1.477,3.041,3.041,0,0,1,1.417-.768,3.5,3.5,0,0,1,1.565,0,2,2,0,0,1,1.329.886c.148.207.148.325.03.325A2.677,2.677,0,0,1,185.96,80.522Z" transform="translate(-167.976 -76.211)"/><path d="M214.806,80.615l.177-.177a2.9,2.9,0,0,1,1.358-.65,6.55,6.55,0,0,1,1.093-.089,3.042,3.042,0,0,1,1.034.177.952.952,0,0,1,.62.532c.118.3.207.591.3.856a3.3,3.3,0,0,1,.738-.827,2.957,2.957,0,0,1,1.358-.679c.354-.03.709-.059,1.093-.059a3.344,3.344,0,0,1,1.063.177.952.952,0,0,1,.62.532,13.62,13.62,0,0,1,.62,2.215,15.543,15.543,0,0,1,.236,2.126v1.89c0,.62-.03,1.122-.059,1.477a2.985,2.985,0,0,0,.059.915c0,.059.118.207.354.472.118.118.118.207.03.207a.5.5,0,0,1-.148-.059,1.951,1.951,0,0,1-.591-.413,2.042,2.042,0,0,1-.413-.709,5.349,5.349,0,0,1-.266-.915,9.542,9.542,0,0,1-.148-1.24c-.03-.5-.059-.974-.059-1.417s-.03-1-.03-1.683c0-.3,0-.62.03-.915a6.794,6.794,0,0,0,.03-.679,1.815,1.815,0,0,0-.03-.413,1,1,0,0,0-.118-.354,1.509,1.509,0,0,0-.856-.591,2.179,2.179,0,0,0-1.152-.03,1.926,1.926,0,0,0-.915.532,2.171,2.171,0,0,0-.5.915.929.929,0,0,1-.591.561c-.03,0-.089.03-.118.03a.862.862,0,0,0,.059.266,11.689,11.689,0,0,1,.207,2.126v1.86c0,.62-.03,1.122-.059,1.477a3.185,3.185,0,0,0,.059.945,2.04,2.04,0,0,0,.354.472c.118.118.118.177.03.177a.321.321,0,0,1-.148-.03,1.427,1.427,0,0,1-.591-.413,2.042,2.042,0,0,1-.413-.709,5.35,5.35,0,0,1-.266-.915,9.543,9.543,0,0,1-.148-1.24c-.03-.5-.059-.974-.059-1.417s-.03-1-.03-1.683c0-.3,0-.591.03-.915a6.8,6.8,0,0,0,.03-.679,1.816,1.816,0,0,0-.03-.413.648.648,0,0,0-.148-.354,1.307,1.307,0,0,0-.856-.591,2.125,2.125,0,0,0-2.067.532,2.011,2.011,0,0,0-.5.915.9.9,0,0,1-.443.5c0,2.126.03,4.252.03,6.379,0,.236-.177.413-.532.62-.384.207-.62.207-.738,0a.221.221,0,0,1-.03-.148c0-2.894-.03-5.581-.059-8.062,0-.236.177-.443.5-.62.384-.236.65-.236.738,0a.221.221,0,0,1,.03.148C214.806,80.586,214.806,80.615,214.806,80.615Z" transform="translate(-191.241 -76.422)"/><path d="M261.4,84.29h2.333c.325,0,.709-.03,1.152-.03a3.608,3.608,0,0,0,.945-.089c.177-.03.3-.089.3-.148a4.415,4.415,0,0,0-.207-1.949,3.77,3.77,0,0,0-.945-1.506,2.1,2.1,0,0,0-1.565-.561,2.365,2.365,0,0,0-1.536.679,5.121,5.121,0,0,0-1.063,2.776,7.8,7.8,0,0,0,.059,3.012,5.549,5.549,0,0,0,.591,1.536,2.506,2.506,0,0,0,.945.974,1.9,1.9,0,0,0,1.329.236,1.931,1.931,0,0,0,1.211-.679,2.654,2.654,0,0,1,1.447-.915c.3-.059.443.03.413.207a1.451,1.451,0,0,1-.236.5,3.725,3.725,0,0,1-5.286.65,5.471,5.471,0,0,1-1.477-2.54,8.011,8.011,0,0,1-.236-3.573,4.7,4.7,0,0,1,.856-2.126,3.267,3.267,0,0,1,1.536-1.211,3.725,3.725,0,0,1,1.8-.148,3.556,3.556,0,0,1,1.683.709,3.649,3.649,0,0,1,.856,1,4.56,4.56,0,0,1,.561,1.3,3.378,3.378,0,0,1,.089,1.329,1.532,1.532,0,0,1-.532,1.034,1.244,1.244,0,0,1-.768.236c-.354,0-.8-.03-1.388-.089s-1.034-.089-1.358-.089a3.891,3.891,0,0,1-1.919-.325c-.118-.089-.059-.148.118-.177A1.108,1.108,0,0,1,261.4,84.29Z" transform="translate(-223.779 -76.169)"/><path d="M292.029,82.787c0,2.067.03,4.1.03,6.142,0,.236-.177.413-.532.62-.384.207-.62.207-.738,0a.221.221,0,0,1-.03-.148c0-2.894-.03-5.581-.059-8.062,0-.236.177-.443.5-.62.384-.236.65-.236.738,0a.221.221,0,0,1,.03.148v.679a5.006,5.006,0,0,1,.65-.709,2.958,2.958,0,0,1,1.358-.679c.354-.03.709-.059,1.093-.059a3.345,3.345,0,0,1,1.063.177,1.131,1.131,0,0,1,.65.561,12.131,12.131,0,0,1,.62,2.215,15.531,15.531,0,0,1,.236,2.126v1.86c0,.62-.03,1.122-.03,1.477a2.914,2.914,0,0,0,.059.915c.03.059.148.207.354.5.118.118.118.177.03.177a.321.321,0,0,1-.148-.03,1.951,1.951,0,0,1-.591-.413,2.041,2.041,0,0,1-.413-.709,4.673,4.673,0,0,1-.266-.915,10.241,10.241,0,0,1-.148-1.24c-.03-.5-.059-.975-.059-1.417s-.03-1-.03-1.683c0-.3,0-.591.03-.915s.03-.532.03-.679a1.817,1.817,0,0,0-.03-.413,1,1,0,0,0-.118-.354,1.662,1.662,0,0,0-.856-.591,2.179,2.179,0,0,0-1.152-.03,1.768,1.768,0,0,0-.915.561,2.01,2.01,0,0,0-.5.915c-.059.236-.236.413-.591.561C292.236,82.758,292.117,82.787,292.029,82.787Z" transform="translate(-245.785 -76.704)"/><path d="M323,71.905c0,.5-.03,1.3-.059,2.362v.089c.413,0,.768-.03,1.034-.03.118,0,.207.089.3.266s.03.266-.148.266h-1.211c-.03.8-.03,1.506-.03,2.038,0,.709,0,1.477.03,2.362a18.523,18.523,0,0,0,.207,2.392,9.475,9.475,0,0,0,.472,1.86,1.469,1.469,0,0,0,.443.325c.177.118.177.148,0,.148a2.5,2.5,0,0,0-.384.03,3.061,3.061,0,0,1-.473.03,1.457,1.457,0,0,1-.443-.089.907.907,0,0,1-.443-.3,3,3,0,0,1-.384-.532,2.16,2.16,0,0,1-.207-.561,4.043,4.043,0,0,1-.059-.472v-.856c0-.975-.03-2.1-.03-3.307V74.888h-.384c-.118,0-.207-.089-.325-.266-.089-.177-.03-.266.148-.266h.532c0-.709.03-1.417.03-2.1,0-.207.177-.413.561-.561.413-.177.65-.177.738.059C323,71.817,323,71.846,323,71.905Z" transform="translate(-267.04 -70.695)"/><path d="M343.337,81.465a3.165,3.165,0,0,0-.738-1,2,2,0,0,0-1.034-.5,2.141,2.141,0,0,0-1.211.177,1.625,1.625,0,0,0-.827.768,2.537,2.537,0,0,0-.3,1.152,2.239,2.239,0,0,0,.207,1.152,1.419,1.419,0,0,0,.266.325,2.915,2.915,0,0,0,.443.266,3.374,3.374,0,0,0,.413.177c.089.03.266.089.561.177a4.336,4.336,0,0,0,.5.148,3.077,3.077,0,0,1,.5.148c.266.089.443.148.561.177q.133.044.443.177a3.878,3.878,0,0,1,.5.266,2.1,2.1,0,0,1,.384.354,2.479,2.479,0,0,1,.532,1.713,2.159,2.159,0,0,1-.561,1.654,3.5,3.5,0,0,1-2.362.827,3.768,3.768,0,0,1-2.392-.8.976.976,0,0,1-.354-1.211c.089-.3.207-.443.384-.443.089,0,.148.059.177.207a1.917,1.917,0,0,0,1.093,1.358,2.3,2.3,0,0,0,1.919.118,1.1,1.1,0,0,0,.62-.591,2.663,2.663,0,0,0,.266-.945c0-.059.03-.177.059-.384s.059-.354.059-.443V86.1a1.5,1.5,0,0,0-.059-.384.8.8,0,0,0-.207-.236,5.137,5.137,0,0,0-1.27-.591c-.532-.177-1.034-.354-1.477-.472a3.584,3.584,0,0,1-1.3-.65,2.726,2.726,0,0,1-.975-1.122,1.553,1.553,0,0,1-.089-1.034,2.559,2.559,0,0,1,.5-.974,3.412,3.412,0,0,1,.827-.768,2.925,2.925,0,0,1,.886-.413,3.661,3.661,0,0,1,2.923.5,1.955,1.955,0,0,1,.5.472c.089.177.148.3.118.413a.885.885,0,0,1-.118.3,1.284,1.284,0,0,1-.177.207Z" transform="translate(-279.139 -76.179)"/></g></g><g transform="translate(92 28.03)"><path class="a" d="M39.946,19.936V8.892H31.087V2.1h-13.2v9.479H13.34V7.445H4.185v9.391H7.463v3.928H2V34.081H15.23V28.972h9.361V27.053H28.4v4.37h6.172v-6.2H30.733V19.936ZM24.561,15.418h4.43v2.776h-4.43Z" transform="translate(-1.409 -1.48)"/><g transform="translate(5.404 15.238)"><rect class="b" width="1.299" height="4.046"/></g><g transform="translate(11.93 9.538)"><rect class="b" width="4.725" height="1.299"/><rect class="b" width="1.299" height="2.481" transform="translate(10.779 4.489)"/><path class="b" d="M55.689,86.6v1.3H46.8v1.27H56.988V86.6Z" transform="translate(-44.91 -70.565)"/></g><path class="c" d="M18.347,29.047H8.1V18.8H18.347ZM9.4,27.748h7.678V20.07H9.4Z" transform="translate(-5.708 -13.248)"/><path class="d" d="M64.828,13.525H54.67V1.3H66.9V7.412h1.3V0H53.4V14.795H64.828Z" transform="translate(-37.631)"/><path class="e" d="M14.617,78.217H0V63.6H14.617ZM1.3,76.918H13.318V64.9H1.3Z" transform="translate(0 -44.819)"/><path class="f" d="M91.94,78.3v1.27h3.426v4.7H90.7V80.574H89.4v4.961h7.235V78.3Z" transform="translate(-63 -55.178)"/><path class="g" d="M74.5,56.11v6.556H66.7v-7.8h6.91V53.6H65.4V63.965H75.795V56.11Z" transform="translate(-46.087 -37.772)"/><path class="h" d="M102.887,34.857H90.1V22.1h12.757V34.857ZM91.4,33.558h10.188V23.4H91.4Z" transform="translate(-63.493 -15.574)"/></g><g transform="translate(93.004 67.504)"><path d="M3.4,141.6H8.361a5.826,5.826,0,0,1,1.417.177,3.4,3.4,0,0,1,1.24.561,3.242,3.242,0,0,1,.886,1,2.954,2.954,0,0,1,.354,1.477,2.542,2.542,0,0,1-.62,1.772,3.438,3.438,0,0,1-1.595,1v.03a3.761,3.761,0,0,1,1.122.325,2.841,2.841,0,0,1,.886.679,2.77,2.77,0,0,1,.561.945,2.958,2.958,0,0,1,.207,1.152,3.456,3.456,0,0,1-.413,1.742,3.31,3.31,0,0,1-1.093,1.122,4.379,4.379,0,0,1-1.536.591,9.014,9.014,0,0,1-1.772.177H3.4Zm2.274,5.2H7.741a2.761,2.761,0,0,0,1.713-.443,1.373,1.373,0,0,0,.561-1.152,1.413,1.413,0,0,0-.591-1.24,3.377,3.377,0,0,0-1.89-.413H5.674Zm0,5.611h2.1c.3,0,.591-.03.915-.059a2.513,2.513,0,0,0,.915-.266,1.782,1.782,0,0,0,.679-.561,1.687,1.687,0,0,0,.266-1A1.507,1.507,0,0,0,9.9,149.1a4.086,4.086,0,0,0-2.038-.384H5.674Z" transform="translate(-3.4 -141.246)"/><path d="M63.677,149.762a5.306,5.306,0,0,1-.384,2.1,4.272,4.272,0,0,1-1.093,1.565,4.567,4.567,0,0,1-1.624,1,6.035,6.035,0,0,1-4.075,0,4.716,4.716,0,0,1-2.717-2.569,5.208,5.208,0,0,1-.384-2.1V141.7h2.274v8a3.713,3.713,0,0,0,.148.974,2.842,2.842,0,0,0,.472.945,2.615,2.615,0,0,0,.886.709,3.6,3.6,0,0,0,2.717,0,2.615,2.615,0,0,0,.886-.709,2.377,2.377,0,0,0,.472-.945,4.115,4.115,0,0,0,.148-.974v-8h2.274v8.062Z" transform="translate(-38.635 -141.316)"/><path d="M112.446,143.5a2.108,2.108,0,0,0-.975-.768,3.721,3.721,0,0,0-1.27-.236,3.219,3.219,0,0,0-.768.089,1.983,1.983,0,0,0-.679.3,1.288,1.288,0,0,0-.472.5,1.516,1.516,0,0,0-.177.738,1.2,1.2,0,0,0,.443,1,4.435,4.435,0,0,0,1.122.591c.443.177.945.325,1.447.472a5.848,5.848,0,0,1,1.447.65,3.6,3.6,0,0,1,1.122,1.093,3.293,3.293,0,0,1,.443,1.831,3.8,3.8,0,0,1-1.388,3.071,4.67,4.67,0,0,1-1.477.768,5.849,5.849,0,0,1-1.772.266,6.736,6.736,0,0,1-2.3-.384,4.429,4.429,0,0,1-1.89-1.329l1.713-1.654a2.9,2.9,0,0,0,1.093.975,3,3,0,0,0,1.447.354,2.487,2.487,0,0,0,.8-.118,2.041,2.041,0,0,0,1.24-.886,1.652,1.652,0,0,0,.207-.768,1.382,1.382,0,0,0-.443-1.093,3.739,3.739,0,0,0-1.122-.65c-.443-.177-.945-.325-1.447-.5a5.848,5.848,0,0,1-1.447-.65,3.109,3.109,0,0,1-1.565-2.894,3.5,3.5,0,0,1,.413-1.713,3.8,3.8,0,0,1,1.063-1.211,4.424,4.424,0,0,1,1.506-.709,6.885,6.885,0,0,1,1.742-.236,6.114,6.114,0,0,1,1.949.3,4.6,4.6,0,0,1,1.713,1Z" transform="translate(-75.209 -140.4)"/><path d="M153.8,141.6h2.274v12.757H153.8Z" transform="translate(-109.387 -141.246)"/><path d="M181.53,141.6h3.012l6.172,9.479h.03V141.6h2.274v12.757h-2.894l-6.319-9.774h-.03v9.774H181.5V141.6Z" transform="translate(-128.907 -141.246)"/><path d="M240.8,141.6h8.446v2.067h-6.172v3.13h5.847v2.067h-5.847v3.455h6.5v2.067H240.8Z" transform="translate(-170.695 -141.246)"/><path d="M292.846,143.5a2.108,2.108,0,0,0-.975-.768,3.721,3.721,0,0,0-1.27-.236,3.219,3.219,0,0,0-.768.089,1.983,1.983,0,0,0-.679.3,1.288,1.288,0,0,0-.473.5,1.517,1.517,0,0,0-.177.738,1.2,1.2,0,0,0,.443,1,4.435,4.435,0,0,0,1.122.591c.443.177.945.325,1.447.472a5.848,5.848,0,0,1,1.447.65,3.6,3.6,0,0,1,1.122,1.093,3.293,3.293,0,0,1,.443,1.831,3.8,3.8,0,0,1-1.388,3.071,4.67,4.67,0,0,1-1.477.768,5.848,5.848,0,0,1-1.772.266,6.737,6.737,0,0,1-2.3-.384,4.429,4.429,0,0,1-1.89-1.329l1.713-1.654a2.9,2.9,0,0,0,1.093.975,3,3,0,0,0,1.447.354,2.487,2.487,0,0,0,.8-.118,2.041,2.041,0,0,0,1.24-.886,1.651,1.651,0,0,0,.207-.768,1.381,1.381,0,0,0-.443-1.093,3.739,3.739,0,0,0-1.122-.65c-.443-.177-.945-.325-1.447-.5a5.848,5.848,0,0,1-1.447-.65,3.109,3.109,0,0,1-1.565-2.894,3.5,3.5,0,0,1,.413-1.713,3.8,3.8,0,0,1,1.063-1.211,4.424,4.424,0,0,1,1.506-.709,6.884,6.884,0,0,1,1.742-.236,6.114,6.114,0,0,1,1.949.3,4.6,4.6,0,0,1,1.713,1Z" transform="translate(-202.336 -140.4)"/><path d="M338.446,143.5a2.108,2.108,0,0,0-.974-.768,3.721,3.721,0,0,0-1.27-.236,3.22,3.22,0,0,0-.768.089,1.983,1.983,0,0,0-.679.3,1.288,1.288,0,0,0-.472.5,1.516,1.516,0,0,0-.177.738,1.2,1.2,0,0,0,.443,1,4.435,4.435,0,0,0,1.122.591c.443.177.945.325,1.447.472a5.848,5.848,0,0,1,1.447.65,3.6,3.6,0,0,1,1.122,1.093,3.293,3.293,0,0,1,.443,1.831,3.8,3.8,0,0,1-1.388,3.071,4.67,4.67,0,0,1-1.477.768,5.849,5.849,0,0,1-1.772.266,6.737,6.737,0,0,1-2.3-.384,4.429,4.429,0,0,1-1.89-1.329l1.713-1.654a2.9,2.9,0,0,0,1.093.975,3,3,0,0,0,1.447.354,2.487,2.487,0,0,0,.8-.118,2.041,2.041,0,0,0,1.24-.886,1.651,1.651,0,0,0,.207-.768,1.382,1.382,0,0,0-.443-1.093,3.74,3.74,0,0,0-1.122-.65c-.443-.177-.945-.325-1.447-.5a5.847,5.847,0,0,1-1.447-.65,3.109,3.109,0,0,1-1.565-2.894,3.5,3.5,0,0,1,.413-1.713,3.8,3.8,0,0,1,1.063-1.211,4.424,4.424,0,0,1,1.506-.709,6.885,6.885,0,0,1,1.742-.236,6.113,6.113,0,0,1,1.949.3,4.6,4.6,0,0,1,1.713,1Z" transform="translate(-234.47 -140.4)"/></g></g></svg>