<?xml version="1.0" encoding="UTF-8"?><!DOCTYPE svg PUBLIC "-//W3C//DTD SVG 1.1//EN" "http://www.w3.org/Graphics/SVG/1.1/DTD/svg11.dtd"><svg xmlns="http://www.w3.org/2000/svg"><defs>
        <style>
            .cls-1{fill:#bbbed0;fill-rule:evenodd}
        </style>
    </defs><symbol id="icon-amount" viewBox="0 0 24 24">
    
    <path class="cls-1" d="M12 24a12 12 0 1 1 12-12 12 12 0 0 1-12 12zm-.085-21.936a10.112 10.112 0 0 0-3.857 19.347l3.929-8.053H5.623zM17.031 3.3l-2.8 4.737h6.2l-11.5 13.715a10.115 10.115 0 0 0 8.1-18.452z"/>
</symbol><symbol id="icon-check" viewBox="0 0 24 24">
    <title>
        check
    </title>
    <path d="M20.7 5.3c-.4-.4-1-.4-1.4 0L9 15.6l-4.3-4.3c-.4-.4-1-.4-1.4 0s-.4 1 0 1.4l5 5c.2.2.4.3.7.3s.5-.1.7-.3l11-11c.4-.4.4-1 0-1.4z"/>
</symbol><symbol id="icon-chevron-down" viewBox="0 0 24 24">
    <title>
        chevron-down
    </title>
    <path d="M18.7 8.3c-.4-.4-1-.4-1.4 0L12 13.6 6.7 8.3c-.4-.4-1-.4-1.4 0s-.4 1 0 1.4l6 6c.2.2.5.3.7.3s.5-.1.7-.3l6-6c.4-.4.4-1 0-1.4z"/>
</symbol><symbol id="icon-close" viewBox="0 0 24 24">
    <title>
        close
    </title>
    <path d="M18.984 6.422L13.406 12l5.578 5.578-1.406 1.406L12 13.406l-5.578 5.578-1.406-1.406L10.594 12 5.016 6.422l1.406-1.406L12 10.594l5.578-5.578z"/>
</symbol><symbol id="icon-facebook" viewBox="0 0 32 32">
    <title>
        facebook
    </title>
    <path d="M19 6h5V0h-5c-3.86 0-7 3.14-7 7v3H8v6h4v16h6V16h5l1-6h-6V7c0-.542.458-1 1-1z"/>
</symbol><symbol id="icon-twitter" viewBox="0 0 32 32">
    <title>
        twitter2
    </title>
    <path d="M27.706 9.594c.013.259.018.522.018.781 0 7.984-6.075 17.187-17.184 17.187-3.413 0-6.586-1-9.259-2.715.474.056.954.085 1.44.085 2.832 0 5.435-.966 7.501-2.584a6.047 6.047 0 0 1-5.642-4.194 6.154 6.154 0 0 0 2.728-.104 6.047 6.047 0 0 1-4.845-5.925v-.075a6.021 6.021 0 0 0 2.736.757 6.04 6.04 0 0 1-2.688-5.029c0-1.106.298-2.144.819-3.037a17.146 17.146 0 0 0 12.45 6.312 6.12 6.12 0 0 1-.155-1.378 6.037 6.037 0 0 1 6.038-6.037 6.03 6.03 0 0 1 4.41 1.906 12.148 12.148 0 0 0 3.835-1.466 6.061 6.061 0 0 1-2.656 3.341 12.1 12.1 0 0 0 3.469-.95 12.22 12.22 0 0 1-3.014 3.125z"/>
</symbol></svg>